<!DOCTYPE svg PUBLIC "-//W3C//DTD SVG 20010904//EN" "http://www.w3.org/TR/2001/REC-SVG-20010904/DTD/svg10.dtd">
<svg version="1.0" xmlns="http://www.w3.org/2000/svg" width="328px" height="328px" viewBox="0 0 3280 3280" preserveAspectRatio="xMidYMid meet">
<g id="layer1" fill="#181717" stroke="none">
 <path d="M142 3267 c-51 -19 -97 -61 -121 -111 -20 -45 -21 -57 -21 -489 0 -497 9 -602 59 -729 95 -241 288 -451 519 -567 l63 -32 -58 -43 c-122 -90 -226 -229 -273 -366 -32 -91 -39 -285 -15 -379 70 -265 306 -493 555 -536 108 -19 193 -19 298 0 137 24 258 92 368 207 136 141 195 278 202 469 3 96 0 129 -17 193 -25 89 -68 179 -121 250 -42 57 -144 156 -190 183 -16 9 -30 20 -30 23 0 3 21 14 47 24 170 70 388 281 483 465 l20 40 74 -44 c41 -25 87 -50 104 -56 l29 -10 -57 -59 c-71 -71 -123 -173 -141 -271 -41 -229 116 -476 357 -560 72 -25 218 -28 280 -6 173 62 304 195 359 365 13 41 16 78 13 150 -3 88 -8 105 -42 177 -26 52 -60 101 -98 142 l-60 61 46 21 c178 78 375 287 450 476 45 113 56 223 56 557 0 283 -1 300 -21 343 -25 54 -75 98 -128 114 -56 16 -2943 14 -2989 -2z m1698 -589 c0 -442 -6 -539 -36 -633 -100 -308 -285 -492 -579 -577 -68 -19 -103 -22 -230 -22 -133 1 -160 4 -238 28 -148 44 -263 113 -364 218 -54 56 -135 175 -148 218 -4 14 -11 30 -16 35 -4 6 -20 51 -36 100 l-27 90 -4 484 c-3 391 -1 486 10 492 7 5 385 9 841 9 l827 0 0 -442z m1264 436 c24 -9 24 -578 0 -692 -45 -217 -167 -381 -354 -475 -112 -56 -200 -77 -331 -77 -154 0 -319 54 -418 138 -29 25 -31 30 -22 57 23 68 31 222 31 627 l0 428 539 0 c297 0 546 -3 555 -6z m-529 -1448 c103 -47 168 -136 184 -252 15 -108 -19 -234 -82 -302 -51 -55 -169 -101 -257 -102 -59 0 -152 29 -201 62 -183 124 -184 443 -2 565 99 67 249 79 358 29z m-1438 -411 c183 -43 314 -157 385 -336 19 -47 22 -74 22 -204 0 -129 -3 -157 -21 -203 -87 -216 -256 -337 -488 -349 -274 -14 -474 117 -562 369 -33 94 -37 249 -9 342 73 244 272 393 526 395 47 0 113 -6 147 -14z"/>
 </g>

</svg>