<!DOCTYPE svg PUBLIC "-//W3C//DTD SVG 20010904//EN" "http://www.w3.org/TR/2001/REC-SVG-20010904/DTD/svg10.dtd">
<svg version="1.0" xmlns="http://www.w3.org/2000/svg" width="352px" height="328px" viewBox="0 0 3520 3280" preserveAspectRatio="xMidYMid meet">
<g id="layer1" fill="#181717" stroke="none">
 <path d="M253 3261 c-58 -20 -69 -27 -132 -85 -58 -55 -91 -109 -107 -175 -48 -201 39 -375 235 -467 46 -22 70 -27 136 -27 70 0 90 4 146 31 83 40 169 125 211 209 l31 64 1076 -4 c1005 -2 1080 -4 1136 -21 197 -59 312 -178 351 -361 30 -137 11 -297 -48 -408 -61 -113 -156 -182 -313 -227 -68 -19 -101 -20 -1186 -20 -1191 0 -1200 0 -1341 -49 -182 -63 -319 -180 -393 -337 -50 -105 -67 -314 -41 -486 39 -255 235 -444 531 -513 58 -13 231 -15 1378 -15 l1311 0 -132 -133 c-142 -144 -151 -160 -111 -211 17 -21 29 -26 67 -26 l47 0 208 208 c201 201 207 208 207 248 0 39 -6 46 -218 257 -121 119 -226 217 -235 217 -49 0 -97 -50 -97 -101 0 -15 41 -64 127 -151 l127 -128 -1304 0 c-837 0 -1321 4 -1350 11 -25 5 -74 22 -110 36 -184 76 -276 215 -288 434 -14 281 109 458 373 536 55 16 151 18 1240 23 1284 6 1188 2 1330 58 143 57 277 177 339 304 40 80 66 215 66 338 0 105 -26 252 -55 314 -95 202 -297 339 -550 376 -43 6 -465 10 -1108 10 l-1037 0 -25 55 c-26 60 -107 152 -164 188 -79 48 -230 61 -328 28z m248 -174 c34 -17 51 -35 72 -77 25 -48 28 -64 25 -127 -4 -95 -39 -147 -118 -181 -102 -42 -217 -15 -274 66 -24 34 -30 53 -33 114 -4 65 -2 79 24 127 38 74 90 101 189 101 54 0 81 -5 115 -23z"/>
 </g>

</svg>