<!DOCTYPE svg PUBLIC "-//W3C//DTD SVG 20010904//EN" "http://www.w3.org/TR/2001/REC-SVG-20010904/DTD/svg10.dtd">
<svg version="1.0" xmlns="http://www.w3.org/2000/svg" width="300px" height="443px" viewBox="0 0 3000 4430" preserveAspectRatio="xMidYMid meet">
<g id="layer1" fill="#181717" stroke="none">
 <path d="M30 4400 c-24 -25 -30 -41 -30 -75 0 -24 5 -47 10 -50 6 -3 10 -14 10 -24 0 -10 14 -51 31 -92 17 -41 46 -117 65 -169 20 -52 66 -174 104 -270 37 -96 103 -265 145 -375 106 -276 209 -541 310 -797 47 -120 85 -220 85 -223 0 -3 -71 -5 -157 -5 -87 0 -175 -5 -195 -10 -24 -7 -53 -29 -85 -64 -72 -78 -88 -148 -57 -243 17 -54 14 -46 84 -213 53 -124 155 -377 211 -520 16 -41 35 -88 43 -105 7 -16 18 -41 24 -55 5 -14 17 -41 25 -60 8 -19 34 -82 57 -140 23 -58 68 -168 100 -245 32 -77 74 -180 93 -230 61 -159 113 -261 154 -301 56 -56 115 -94 180 -115 53 -18 101 -19 826 -19 546 0 781 3 808 11 45 14 102 71 118 118 22 67 10 153 -29 211 -20 28 -139 215 -157 245 -28 48 -142 229 -207 330 -39 61 -76 119 -83 130 -6 11 -47 75 -90 143 -43 68 -82 131 -88 140 -5 10 -30 49 -55 87 -25 39 -50 79 -57 90 -48 81 -145 235 -162 257 -34 43 -28 48 67 48 106 1 165 13 215 46 79 52 98 133 52 216 -14 25 -146 171 -293 324 -147 154 -573 599 -946 989 -374 391 -727 760 -786 820 -59 61 -129 134 -157 164 -45 49 -54 54 -101 59 -48 4 -54 2 -82 -28z m715 -895 c33 -33 91 -94 129 -135 76 -82 473 -496 601 -627 44 -44 145 -150 225 -234 80 -84 181 -189 225 -234 44 -45 116 -119 160 -163 l79 -82 -182 0 c-209 0 -233 -6 -252 -65 -16 -48 -8 -74 48 -159 26 -39 52 -80 59 -91 6 -11 46 -74 88 -140 42 -66 81 -129 88 -140 7 -11 28 -44 48 -75 20 -30 73 -116 119 -190 45 -74 90 -146 99 -159 32 -48 135 -209 181 -285 19 -31 59 -93 88 -137 28 -44 52 -83 52 -86 0 -3 24 -42 54 -87 79 -121 126 -195 126 -201 0 -3 -331 -5 -735 -5 -790 0 -774 -1 -822 51 -21 24 -86 167 -143 321 -16 42 -39 99 -51 125 -32 72 -43 99 -89 213 -23 58 -68 168 -100 245 -32 77 -76 185 -98 240 -22 55 -61 152 -87 215 -26 63 -51 124 -55 135 -21 52 -84 204 -100 240 -10 22 -25 57 -33 78 l-16 37 254 0 255 0 32 29 c46 41 44 88 -8 211 -23 52 -51 124 -64 160 -12 36 -26 74 -31 85 -33 77 -117 295 -123 319 -4 15 -15 47 -26 70 -23 52 -130 324 -130 332 0 4 -32 88 -71 188 -40 99 -75 190 -79 201 -4 11 -19 50 -33 87 l-25 67 141 -147 c78 -81 168 -174 202 -207z"/>
 </g>

</svg>