<!DOCTYPE svg PUBLIC "-//W3C//DTD SVG 20010904//EN" "http://www.w3.org/TR/2001/REC-SVG-20010904/DTD/svg10.dtd">
<svg version="1.0" xmlns="http://www.w3.org/2000/svg" width="337px" height="328px" viewBox="0 0 3370 3280" preserveAspectRatio="xMidYMid meet">
<g id="layer1" fill="#181717" stroke="none">
 <path d="M639 3267 c-45 -35 -46 -25 72 -619 l111 -561 -68 -66 c-38 -37 -139 -132 -224 -211 -154 -143 -434 -406 -498 -467 -30 -29 -33 -37 -30 -79 4 -69 24 -79 188 -98 74 -8 236 -27 360 -42 124 -14 310 -36 414 -48 l189 -21 154 -345 c84 -190 188 -421 229 -515 41 -94 83 -176 92 -183 26 -20 99 -15 119 8 9 11 119 248 244 527 l227 508 188 21 c104 12 290 34 414 48 124 15 286 34 360 42 164 19 184 29 188 98 3 42 0 50 -30 79 -56 53 -323 304 -488 457 -85 79 -188 176 -229 216 l-73 71 111 561 c106 529 111 563 97 590 -34 65 -77 58 -248 -39 -149 -85 -161 -92 -293 -166 -44 -25 -116 -67 -160 -93 -222 -130 -362 -210 -371 -210 -5 0 -41 18 -79 41 -175 103 -471 274 -560 324 -27 15 -95 53 -150 85 -168 97 -175 100 -208 100 -18 0 -39 -6 -48 -13z m243 -274 c21 -13 40 -23 43 -23 2 0 26 -13 52 -29 27 -15 152 -88 278 -161 127 -73 271 -158 322 -187 79 -47 96 -54 125 -48 18 4 40 13 48 20 8 7 58 37 110 67 52 30 192 111 310 180 297 172 382 219 387 215 1 -2 -40 -216 -92 -477 -52 -261 -95 -485 -95 -498 0 -27 38 -66 271 -282 200 -186 459 -433 456 -436 -3 -2 -199 -27 -522 -64 -458 -53 -442 -50 -469 -79 -21 -22 -94 -177 -246 -521 -75 -170 -171 -385 -174 -388 -2 -1 -21 39 -44 90 -173 398 -357 797 -378 819 -21 22 -39 27 -117 37 -78 10 -504 60 -787 93 -46 5 -85 11 -87 13 -3 3 238 234 456 436 233 216 271 255 271 282 0 13 -43 237 -95 497 -52 261 -95 476 -95 477 0 6 36 -10 72 -33z"/>
 </g>

</svg>