<!DOCTYPE svg PUBLIC "-//W3C//DTD SVG 20010904//EN" "http://www.w3.org/TR/2001/REC-SVG-20010904/DTD/svg10.dtd">
<svg version="1.0" xmlns="http://www.w3.org/2000/svg" width="328px" height="328px" viewBox="0 0 3280 3280" preserveAspectRatio="xMidYMid meet">
<g id="layer1" fill="#181717" stroke="none">
 <path d="M247 3264 c-90 -24 -199 -126 -229 -214 -18 -49 -24 -1840 -8 -1920 16 -72 47 -125 109 -184 65 -60 136 -92 227 -101 l72 -7 4 -71 c4 -96 41 -169 124 -247 74 -69 146 -100 233 -100 l59 0 7 -73 c10 -100 44 -174 114 -240 66 -64 96 -80 171 -96 79 -17 1870 -11 1920 7 90 31 191 140 216 234 20 78 20 1838 0 1915 -18 68 -44 109 -106 167 -64 60 -138 93 -228 101 l-70 7 -4 72 c-4 95 -41 168 -124 246 -74 69 -146 100 -233 100 l-59 0 -7 74 c-9 99 -46 176 -116 242 -117 110 -51 104 -1114 103 -715 -1 -920 -4 -958 -15z m1933 -170 c19 -11 46 -40 60 -65 l25 -44 3 -890 c3 -961 4 -948 -50 -1017 -55 -71 -23 -69 -1029 -66 l-894 3 -44 25 c-25 14 -54 41 -65 60 -21 34 -21 48 -24 945 -2 662 0 921 8 950 15 50 44 82 95 106 38 18 82 19 960 16 907 -2 920 -2 955 -23z m420 -426 c33 -17 51 -35 68 -68 l22 -45 -2 -925 -3 -925 -21 -34 c-12 -18 -37 -43 -55 -55 l-34 -21 -925 -3 -925 -2 -45 22 c-59 30 -90 88 -90 170 l0 57 778 3 777 3 67 33 c47 23 84 52 126 97 103 113 97 51 100 943 l3 772 57 0 c40 0 72 -7 102 -22z m386 -409 c57 -15 108 -62 123 -114 16 -57 15 -1819 0 -1866 -16 -47 -63 -94 -108 -108 -28 -8 -294 -11 -942 -11 -860 0 -906 1 -945 19 -66 30 -104 102 -104 199 l0 42 781 0 781 0 64 31 c82 39 154 111 193 193 l31 64 0 781 0 781 41 0 c22 0 60 -5 85 -11z"/>
 </g>

</svg>