<!DOCTYPE svg PUBLIC "-//W3C//DTD SVG 20010904//EN" "http://www.w3.org/TR/2001/REC-SVG-20010904/DTD/svg10.dtd">
<svg version="1.0" xmlns="http://www.w3.org/2000/svg" width="454px" height="300px" viewBox="0 0 4540 3000" preserveAspectRatio="xMidYMid meet">
<g id="layer1" fill="#181717" stroke="none">
 <path d="M755 2985 c-374 -82 -687 -403 -741 -760 -29 -190 -11 -465 38 -589 73 -185 203 -346 383 -471 77 -54 249 -145 273 -145 4 0 13 -36 20 -81 61 -384 347 -741 707 -880 199 -76 543 -79 754 -5 88 31 204 93 281 149 78 57 214 192 257 254 20 29 42 53 49 53 7 0 43 -7 81 -16 44 -11 111 -17 188 -16 501 0 911 363 961 849 7 63 8 64 48 85 81 41 186 121 259 197 170 179 227 322 227 576 0 170 -18 259 -76 373 -111 222 -358 385 -652 431 -113 17 -2976 14 -3057 -4z m3100 -208 c190 -54 310 -129 387 -243 159 -236 133 -563 -62 -777 -61 -67 -173 -145 -271 -190 -41 -19 -81 -42 -89 -51 -9 -12 -16 -55 -21 -130 -7 -127 -25 -199 -77 -305 -112 -231 -356 -382 -642 -397 -97 -6 -164 4 -303 42 -62 17 -71 17 -95 3 -15 -8 -41 -37 -59 -64 -46 -73 -81 -117 -148 -188 -232 -246 -592 -340 -928 -242 -141 41 -242 99 -349 202 -66 64 -188 235 -188 264 0 8 -4 19 -8 25 -29 32 -66 187 -82 339 -9 94 -26 114 -116 140 -111 32 -270 124 -363 209 -249 230 -319 637 -166 971 96 209 284 352 540 410 49 11 317 13 1500 12 l1440 -2 100 -28z"/>
 <path d="M2238 2463 c-38 -10 -17 -28 32 -28 52 0 69 18 28 29 -25 6 -34 6 -60 -1z"/>
 </g>

</svg>