<!DOCTYPE svg PUBLIC "-//W3C//DTD SVG 20010904//EN" "http://www.w3.org/TR/2001/REC-SVG-20010904/DTD/svg10.dtd">
<svg version="1.0" xmlns="http://www.w3.org/2000/svg" width="343px" height="328px" viewBox="0 0 3430 3280" preserveAspectRatio="xMidYMid meet">
<g id="layer1" fill="#181717" stroke="none">
 <path d="M216 3264 c-96 -15 -131 -31 -148 -69 -18 -41 -1 -71 75 -134 193 -157 308 -321 315 -452 l4 -66 -63 -72 c-240 -271 -349 -490 -383 -773 -42 -338 4 -584 165 -878 103 -188 380 -459 594 -580 303 -172 568 -240 940 -240 372 0 640 69 942 241 215 123 474 376 592 579 155 267 207 544 165 878 -64 522 -498 1005 -1089 1212 -276 96 -600 125 -895 79 -170 -27 -170 -27 -238 8 -430 223 -483 245 -649 268 -120 17 -210 17 -327 -1z m375 -183 c101 -29 234 -85 408 -171 241 -119 265 -125 416 -93 60 12 134 16 300 17 253 0 359 -16 570 -85 245 -79 431 -194 610 -374 97 -97 132 -141 182 -226 117 -197 159 -322 183 -535 32 -279 -69 -634 -243 -858 -55 -69 -199 -216 -257 -260 -541 -412 -1378 -450 -1960 -88 -114 71 -177 121 -270 219 -109 113 -147 162 -196 248 -97 173 -141 312 -164 513 -18 156 1 322 58 507 13 41 69 160 104 220 44 75 105 156 179 237 89 98 113 145 117 235 8 141 -80 314 -239 472 l-54 54 95 -7 c53 -3 125 -15 161 -25z"/>
 </g>

</svg>