<!DOCTYPE svg PUBLIC "-//W3C//DTD SVG 20010904//EN" "http://www.w3.org/TR/2001/REC-SVG-20010904/DTD/svg10.dtd">
<svg version="1.0" xmlns="http://www.w3.org/2000/svg" width="300px" height="407px" viewBox="0 0 3000 4070" preserveAspectRatio="xMidYMid meet">
<g id="layer1" fill="#181717" stroke="none">
 <path d="M1419 4047 c-84 -42 -251 -188 -397 -351 -59 -65 -117 -129 -130 -143 -22 -25 -54 -65 -164 -212 -82 -110 -278 -403 -278 -416 0 -3 -16 -30 -35 -60 -49 -77 -206 -401 -253 -525 -120 -308 -162 -529 -162 -836 0 -241 32 -408 113 -591 160 -360 450 -646 816 -804 124 -53 214 -77 356 -94 210 -25 457 -12 622 35 361 101 712 379 907 718 134 233 186 441 186 741 0 291 -49 550 -155 812 -19 48 -35 90 -35 93 0 14 -194 402 -226 452 -19 29 -34 56 -34 59 0 3 -8 18 -19 33 -10 15 -45 68 -76 117 -79 122 -116 177 -183 266 -110 147 -142 187 -164 212 -13 14 -72 79 -131 145 -60 66 -138 146 -175 178 -218 194 -280 221 -383 171z m147 -210 c78 -58 264 -253 372 -390 48 -61 101 -127 118 -146 17 -20 61 -81 99 -136 37 -55 76 -111 87 -125 29 -39 88 -129 88 -135 0 -4 14 -26 30 -50 17 -24 30 -47 30 -50 0 -4 9 -19 19 -34 22 -30 165 -309 198 -386 85 -195 161 -457 187 -644 18 -123 18 -342 1 -448 -69 -431 -335 -790 -722 -973 -99 -48 -249 -94 -358 -110 -109 -17 -351 -14 -457 4 -431 77 -806 374 -965 766 -71 173 -101 337 -101 535 1 228 40 428 137 705 50 142 197 454 253 537 15 23 28 46 28 51 0 5 14 28 30 50 17 23 30 44 30 47 0 4 41 66 120 184 42 63 118 167 139 192 11 13 67 83 123 154 121 153 299 340 382 401 32 24 62 44 66 44 4 0 34 -20 66 -43z"/>
 <path d="M1335 2200 c-143 -37 -251 -104 -363 -226 -254 -275 -251 -671 7 -946 109 -117 217 -182 358 -219 342 -87 701 116 844 476 34 87 44 253 21 365 -8 36 -35 108 -60 160 -40 81 -60 109 -142 190 -109 109 -206 167 -336 200 -99 26 -233 26 -329 0z m304 -196 c99 -25 159 -59 234 -136 100 -102 140 -206 140 -363 0 -146 -39 -255 -126 -350 -131 -143 -322 -196 -528 -147 -313 75 -462 421 -321 742 27 61 117 157 186 199 111 66 279 89 415 55z"/>
 </g>

</svg>