<!DOCTYPE svg PUBLIC "-//W3C//DTD SVG 20010904//EN" "http://www.w3.org/TR/2001/REC-SVG-20010904/DTD/svg10.dtd">
<svg version="1.0" xmlns="http://www.w3.org/2000/svg" width="441px" height="300px" viewBox="0 0 4410 3000" preserveAspectRatio="xMidYMid meet">
<g id="layer1" fill="#181717" stroke="none">
 <path d="M1925 2985 c-169 -21 -314 -63 -525 -150 -211 -88 -510 -279 -745 -478 -140 -118 -369 -360 -471 -497 -248 -333 -247 -391 13 -739 90 -120 335 -376 458 -479 362 -302 742 -511 1080 -593 257 -63 663 -64 924 -4 81 19 245 76 359 124 216 93 515 285 732 469 144 122 376 368 476 502 177 238 208 318 170 440 -39 125 -215 359 -436 580 -176 176 -217 213 -362 323 -329 248 -684 422 -983 480 -198 39 -481 48 -690 22z m464 -186 c397 -38 852 -249 1236 -573 233 -197 438 -425 551 -615 61 -102 57 -139 -33 -275 -269 -408 -782 -822 -1247 -1007 -704 -278 -1416 -130 -2100 437 -257 213 -491 477 -585 663 -36 69 -26 110 56 235 269 409 782 822 1247 1007 297 117 570 157 875 128z"/>
 <path d="M2010 2461 c-211 -46 -396 -160 -548 -336 -228 -264 -298 -609 -189 -925 36 -102 111 -242 147 -275 11 -10 20 -22 20 -27 0 -10 112 -122 171 -170 116 -94 270 -164 424 -193 116 -22 296 -16 410 14 180 47 372 173 508 331 317 370 312 887 -12 1253 -139 156 -317 271 -496 318 -115 31 -320 35 -435 10z m394 -206 c156 -39 296 -120 388 -224 211 -239 252 -635 96 -918 -78 -143 -164 -227 -308 -302 -137 -71 -203 -86 -380 -85 -141 0 -162 3 -236 27 -214 71 -364 197 -454 382 -48 99 -66 165 -78 280 -29 274 79 547 276 699 194 148 457 202 696 141z"/>
 <path d="M2085 2026 c-143 -36 -297 -162 -366 -300 -105 -213 -62 -435 117 -606 227 -215 511 -215 739 2 229 217 229 539 0 756 -145 139 -318 191 -490 148z m277 -220 c70 -33 110 -72 146 -140 25 -47 27 -60 27 -166 0 -106 -2 -119 -27 -166 -36 -68 -76 -107 -146 -141 -51 -25 -67 -28 -157 -28 -86 0 -108 4 -155 26 -67 31 -112 75 -147 143 -23 43 -28 67 -31 153 -4 97 -3 106 25 165 45 95 85 132 184 168 79 30 203 23 281 -14z"/>
 </g>

</svg>