<!DOCTYPE svg PUBLIC "-//W3C//DTD SVG 20010904//EN" "http://www.w3.org/TR/2001/REC-SVG-20010904/DTD/svg10.dtd">
<svg version="1.0" xmlns="http://www.w3.org/2000/svg" width="389px" height="328px" viewBox="0 0 3890 3280" preserveAspectRatio="xMidYMid meet">
<g id="layer1" fill="#181717" stroke="none">
 <path d="M1720 3265 c-143 -17 -226 -39 -354 -91 -217 -89 -380 -198 -546 -364 -93 -92 -199 -223 -243 -299 -97 -169 -189 -396 -203 -504 -4 -26 -10 -50 -14 -52 -5 -3 -37 32 -73 77 -35 46 -74 92 -86 102 -11 11 -21 25 -21 32 0 22 -56 54 -94 54 -52 0 -86 -36 -86 -90 0 -54 22 -91 122 -210 60 -71 145 -177 200 -251 32 -42 65 -79 73 -83 42 -16 84 -6 128 32 92 77 195 161 287 232 137 106 170 142 170 184 0 64 -67 118 -122 97 -13 -5 -83 -57 -157 -115 -73 -59 -135 -105 -137 -103 -14 14 56 261 102 362 188 414 575 712 1029 790 122 21 377 21 503 -1 181 -31 380 -111 550 -221 83 -53 300 -275 361 -368 53 -82 143 -260 154 -307 17 -69 47 -118 81 -134 65 -31 136 12 136 84 0 70 -62 219 -158 381 -206 347 -583 632 -967 732 -176 46 -423 59 -635 34z"/>
 <path d="M3396 1682 c-3 -5 -98 -65 -212 -133 -114 -68 -222 -138 -241 -155 -56 -53 -40 -129 33 -160 40 -17 53 -11 244 105 63 38 116 68 117 67 5 -4 -40 -209 -59 -266 -20 -62 -67 -173 -90 -215 -7 -11 -23 -40 -37 -65 -40 -72 -144 -200 -228 -284 -180 -179 -419 -304 -695 -363 -118 -25 -447 -25 -568 0 -273 58 -518 188 -709 378 -53 53 -131 146 -131 157 0 5 -7 15 -15 22 -41 34 -150 245 -190 370 -35 105 -107 140 -174 84 -25 -20 -31 -34 -31 -63 0 -44 27 -129 70 -219 17 -35 30 -65 30 -69 0 -3 17 -33 37 -67 168 -277 382 -485 646 -626 252 -135 440 -180 747 -180 309 0 502 45 740 172 428 228 746 648 837 1107 l18 90 116 -114 c106 -105 119 -115 153 -115 55 0 86 37 86 103 l0 51 -197 198 -197 198 -48 0 c-26 0 -49 -4 -52 -8z"/>
 </g>

</svg>