<!DOCTYPE svg PUBLIC "-//W3C//DTD SVG 20010904//EN" "http://www.w3.org/TR/2001/REC-SVG-20010904/DTD/svg10.dtd">
<svg version="1.0" xmlns="http://www.w3.org/2000/svg" width="328px" height="328px" viewBox="0 0 3280 3280" preserveAspectRatio="xMidYMid meet">
<g id="layer1" fill="#181717" stroke="none">
 <path d="M17 3262 c-22 -24 -22 -82 -1 -164 9 -35 72 -245 141 -468 69 -223 132 -432 140 -465 l14 -60 1007 -1008 c554 -554 1028 -1021 1054 -1038 113 -73 318 -80 448 -14 44 22 392 369 414 414 32 62 46 126 46 216 0 96 -16 164 -51 224 -12 20 -477 492 -1033 1049 -995 996 -1012 1013 -1066 1028 -30 9 -251 75 -490 148 -239 73 -456 138 -483 144 -70 18 -121 15 -140 -6z m358 -250 c72 -22 229 -70 350 -107 121 -37 223 -70 227 -74 4 -4 -107 -121 -247 -261 -167 -167 -256 -249 -259 -239 -11 34 -98 314 -131 424 -20 66 -45 145 -55 175 -33 97 -40 132 -27 127 7 -2 71 -22 142 -45z m1395 -897 l625 -625 -303 -302 -302 -303 -627 627 -628 628 300 300 c165 165 302 300 305 300 3 0 286 -281 630 -625z m648 -1252 l-303 -303 -97 97 -98 98 302 302 303 303 97 -97 98 -98 -302 -302z m554 50 c82 -84 119 -129 128 -157 19 -58 17 -135 -4 -176 -25 -48 -342 -366 -391 -393 -54 -28 -145 -28 -200 1 -22 11 -89 70 -150 131 l-110 111 300 300 c165 165 302 300 305 300 4 0 58 -53 122 -117z"/>
 </g>

</svg>