<!DOCTYPE svg PUBLIC "-//W3C//DTD SVG 20010904//EN" "http://www.w3.org/TR/2001/REC-SVG-20010904/DTD/svg10.dtd">
<svg version="1.0" xmlns="http://www.w3.org/2000/svg" width="308px" height="472px" viewBox="0 0 3080 4720" preserveAspectRatio="xMidYMid meet">
<g id="layer1" fill="#000000" stroke="none">
 <path d="M1410 4706 c-60 -17 -96 -37 -149 -82 -47 -40 -106 -125 -116 -166 -6 -24 -11 -25 -93 -31 -48 -4 -109 -14 -135 -23 -60 -20 -145 -97 -177 -160 l-25 -49 -5 -585 -5 -585 -31 -65 c-34 -71 -72 -120 -248 -315 -263 -292 -380 -535 -412 -855 -18 -185 -18 -301 1 -470 21 -194 56 -307 152 -492 201 -387 575 -684 991 -787 188 -47 576 -47 764 0 527 130 969 564 1115 1094 19 70 43 302 43 415 -1 183 -25 365 -64 485 -68 204 -148 327 -380 578 -156 170 -205 239 -240 336 -20 53 -21 85 -26 651 l-5 595 -25 49 c-32 63 -117 140 -177 160 -26 9 -87 19 -135 23 -82 6 -87 7 -93 31 -17 67 -115 180 -190 219 -79 42 -239 55 -335 29z m187 -221 c27 -8 58 -24 68 -35 18 -20 18 -20 -125 -20 -143 0 -143 0 -125 20 16 18 88 47 121 49 6 1 33 -6 61 -14z m514 -324 l29 -29 0 -161 0 -161 -600 0 -600 0 0 161 0 161 29 29 29 29 542 0 542 0 29 -29z m29 -861 c0 -318 9 -388 65 -506 46 -96 99 -165 251 -327 246 -264 335 -423 379 -679 21 -121 21 -346 0 -468 -44 -253 -165 -497 -340 -679 -154 -161 -322 -269 -530 -342 -148 -51 -234 -64 -425 -64 -235 0 -383 33 -578 128 -263 129 -476 341 -602 602 -91 188 -132 369 -131 590 0 384 98 632 364 927 205 228 249 283 292 367 47 93 55 160 55 459 l0 272 600 0 600 0 0 -280z"/>
 <path d="M1427 3394 c-4 -4 -7 -298 -7 -653 l0 -645 -200 -201 -200 -201 0 -45 c0 -71 49 -119 121 -119 28 0 54 22 216 182 l183 182 173 -171 c94 -94 182 -176 194 -182 41 -21 79 -13 117 23 32 29 36 39 36 82 l0 48 -200 201 -200 200 -2 650 -3 650 -111 3 c-60 1 -113 -1 -117 -4z"/>
 </g>

</svg>