<?xml version="1.0" encoding="utf-8"?>
<!-- Generator: Adobe Illustrator 21.0.0, SVG Export Plug-In . SVG Version: 6.00 Build 0)  -->
<svg version="1.1" id="Ebene_1" xmlns="http://www.w3.org/2000/svg" xmlns:xlink="http://www.w3.org/1999/xlink" x="0px" y="0px"
	 viewBox="0 0 328 360" style="enable-background:new 0 0 328 360;" xml:space="preserve">
<style type="text/css">
	.st0{fill:#FFFFFF;}
</style>
<g id="layer1">
	<path class="st0" d="M32.1,357.4c-2.1-2.7-2.1-3.1-2.1-97.8v-95.1l-4.8-1.9C9.7,156.2,0,142,0,125.5c0-16.8,7.4-28.3,23.6-36.7
		l6.4-3.3V45.4c0-39.1,0.1-40.2,2.1-42.8C34.9-1,42.6-1.2,45.8,2.3C48,4.6,48,4.9,48,45.8C48,81.9,48.2,87,49.5,87
		c6.7,0,21,12.4,26,22.5c2.7,5.4,3,7,3,15.5c0,8.2-0.4,10.3-2.6,15c-1.4,3-4.3,7.5-6.3,10c-4.3,5.1-14.7,12.6-18.8,13.5l-2.8,0.7
		v95.7v95.8l-2.3,2.1C42.2,361.1,34.8,360.9,32.1,357.4z M49.1,145.6c7.2-3.1,10.9-8.8,11.7-18.2c1.2-15.3-6.1-23.3-21.7-23.5
		c-7.1-0.1-8.6,0.2-12.7,2.6c-10.6,6.2-12.8,24.9-4.1,34.4C27.5,146.6,41.1,148.9,49.1,145.6z"/>
	<path class="st0" d="M157.1,357.4c-2-2.6-2.1-3.8-2.1-35.3v-32.6l-4.8-1.9c-9.3-3.8-17.5-11.7-23-22.1c-2.4-4.4-2.7-6.1-2.7-15
		c0-9.1,0.3-10.5,3-16c4.8-9.7,14.9-18.9,24.8-22.4l2.7-1.1V108.2c0-102.6,0-102.9,2.1-105.6c1.7-2.2,2.8-2.6,6.9-2.6
		c4.1,0,5.2,0.4,6.9,2.6c2.1,2.7,2.1,3,2.1,105.4v102.7l7.4,3.7c8.7,4.3,16,11.7,20.2,20.4c3.9,8.1,4.5,19.4,1.4,27.5
		c-4.1,10.9-13.8,21-24.2,25.3l-4.8,1.9v32.6c0,31.5-0.1,32.7-2.1,35.3c-1.7,2.2-2.8,2.6-6.9,2.6C159.9,360,158.8,359.6,157.1,357.4
		z M174.5,270.1c8.2-3.7,12.2-11.7,11.2-22.3c-0.7-7.7-4.1-13.6-9.6-16.7c-6.2-3.4-18-3.4-24.2,0c-5.5,3.1-8.9,9-9.6,16.7
		c-1.4,15,6.9,24.2,21.7,24.2C168.2,272,171.9,271.3,174.5,270.1z"/>
	<path class="st0" d="M282.2,357.7l-2.2-2.3v-83.7V188l-2.7-1.1c-9.8-3.5-20.3-13-24.8-22.3c-4-8.2-4.6-19.6-1.5-27.8
		c4.1-11.1,15.3-22.6,24.9-25.8l4.1-1.3V57V4.3l2.3-2.1c3.5-3.3,10.9-3.1,13.6,0.4c2.1,2.6,2.1,3.6,2.1,54.8v52.1l5.7,2.4
		c6,2.7,15.9,11.2,19.3,16.6c4.9,7.9,6.4,21.6,3.6,32.1c-2.9,11-15.2,23.3-26.8,26.8c-1.7,0.5-1.8,5.4-1.8,83.9
		c0,82.9,0,83.4-2.1,86.1C293.1,361,285.4,361.2,282.2,357.7z M301.2,167.9c10.5-5.8,13.2-24.3,5.1-34c-3.9-4.6-9.6-6.9-17.3-6.9
		c-14.2,0-22,8-22,22.5c0,6.1,3.7,14.6,7.4,17C282.2,171.6,293.3,172.2,301.2,167.9z"/>
</g>
</svg>
