<?xml version="1.0" encoding="utf-8"?>
<!-- Generator: Adobe Illustrator 21.0.0, SVG Export Plug-In . SVG Version: 6.00 Build 0)  -->
<svg version="1.1" id="Ebene_1" xmlns="http://www.w3.org/2000/svg" xmlns:xlink="http://www.w3.org/1999/xlink" x="0px" y="0px"
	 viewBox="0 0 356 250" style="enable-background:new 0 0 356 250;" xml:space="preserve">
<style type="text/css">
	.st0{fill:#FFFFFF;}
</style>
<g id="layer1">
	<path class="st0" d="M10.8,248.6c-6.9-3-10.8-9.1-10.8-16.7c0-13.8,14.1-23,26.1-16.9c4.6,2.4,9.6,8.8,10.5,13.7
		C39.1,241.9,23.2,254.2,10.8,248.6z"/>
	<path class="st0" d="M76.4,241c-6.5-2.6-8.3-10.9-3.5-16.2l2.9-3.3h137.7h137.7l2.4,2.8c1.8,2.1,2.4,4,2.4,7.7
		c0,4.2-0.4,5.2-3.1,7.4l-3.1,2.6l-135.6-0.1C139.6,241.9,77.5,241.5,76.4,241z"/>
	<path class="st0" d="M8.8,140.7c-6.6-5.1-8.8-9-8.8-15.7s2.2-10.6,8.8-15.7c7.1-5.4,14.4-4.4,21.9,2.9c8,7.9,8,17.7,0,25.6
		C23.2,145.1,15.9,146.1,8.8,140.7z"/>
	<path class="st0" d="M73.4,131.6c-4.6-4.6-4.6-8.6,0-13.2l3.4-3.4h136.5h136.5l3.1,2.6c2.7,2.2,3.1,3.2,3.1,7.4s-0.4,5.2-3.1,7.4
		l-3.1,2.6H213.3H76.8L73.4,131.6z"/>
	<path class="st0" d="M9.3,34.4C3.5,31,0,24.8,0,18.1C0-2.3,27.5-6.8,35.5,12.2c1.8,4.5,1.9,7.8,0.3,11.5
		C30.6,35.6,19.1,40.3,9.3,34.4z"/>
	<path class="st0" d="M77.8,28.3c-3.9-0.6-7.8-5.6-7.8-10c0-2.7,0.8-4.3,3.4-6.9L76.8,8h136.5h136.5l3.1,2.6
		c2.7,2.2,3.1,3.2,3.1,7.4c0,3.7-0.6,5.6-2.4,7.7l-2.4,2.8l-135.4,0.1C141.4,28.7,79.3,28.5,77.8,28.3z"/>
</g>
</svg>
