<?xml version="1.0" encoding="utf-8"?>
<!-- Generator: Adobe Illustrator 21.0.0, SVG Export Plug-In . SVG Version: 6.00 Build 0)  -->
<svg version="1.1" id="Ebene_1" xmlns="http://www.w3.org/2000/svg" xmlns:xlink="http://www.w3.org/1999/xlink" x="0px" y="0px"
	 viewBox="0 0 328 328" style="enable-background:new 0 0 328 328;" xml:space="preserve">
<style type="text/css">
	.st0{fill:#FE5C2E;}
</style>
<g id="layer1">
	<path class="st0" d="M248.7,326.4c-10.8-2.1-19.8-7.5-30.3-17.8c-7.4-7.4-9.9-10.7-13.3-17.6c-6.4-13.1-8.2-26.2-5.4-40.3
		c0.5-2.4,0.1-2.9-3.8-4.7c-2.4-1.2-6.6-3.3-9.4-4.8c-11.9-6.6-47.7-25.9-55.5-30c-4.7-2.4-9.9-5.3-11.6-6.3l-3.1-1.9l-7.5,7.3
		C96.2,222.5,80.7,229,64.2,229c-21.2,0-40.6-10.9-54.4-30.5c-11.4-16.3-13-43.8-3.7-62.9c3.5-7.2,14.6-19.9,21.5-24.7
		c26.6-18.3,58.6-15.5,81.6,7.2l7,6.8l7-3.9c3.8-2.2,7.2-4,7.4-4s4.3-2.2,9.1-4.8c4.9-2.7,12.9-7,17.8-9.7c5-2.6,12.8-6.8,17.5-9.4
		c4.7-2.5,10.3-5.6,12.5-6.8c2.2-1.2,6-3.1,8.4-4.2c3.9-1.9,4.3-2.4,3.8-4.8c-5.6-28,8.8-56.8,35.3-70.7c15.7-8.3,40.4-8.6,56.3-0.8
		c12.5,6.2,26.4,20.5,31.9,32.8c4.5,10.1,5.9,25.7,3.4,39.5c-2.2,12.5-7.7,22-19.2,32.9c-21.2,20.1-48.4,24.1-73.9,10.7
		c-5.8-3.1-19.1-15.3-24.5-22.6l-2.6-3.4l-10.4,5.5c-20.8,11-37.6,20.1-42.5,22.8c-11.5,6.3-19.3,10.5-23.9,12.7
		c-4.1,2.1-4.7,2.7-4.2,4.6c3.2,11.1,3.9,15.3,3.9,22.7c0,7.4-0.7,11.7-3.8,22.6c-0.5,1.7,0.2,2.5,4.2,4.6c5.3,2.7,16,8.5,23.8,12.8
		c5.5,3.1,28.8,15.6,43.5,23.3l9.4,5l2.5-3.4c5.1-7,18.7-19.4,24.6-22.5c10.9-5.7,18.9-7.8,30-7.8c17.2,0.1,30.4,5.6,43.9,18.4
		c11.5,10.9,17,20.4,19.2,32.9c3.8,21.2-0.3,38.6-12.6,53.9C298.2,323.4,274.7,331.6,248.7,326.4z M281.5,309
		c18.2-6.9,29-21.7,30.2-41.5c1.6-25.8-13.4-46.4-37.5-51.4c-22-4.6-44.4,5.6-53.5,24.2c-14.2,29-0.4,61.8,29.4,70.2
		C258,312.7,273.7,311.9,281.5,309z M86.4,207.6c8.5-4.1,16.6-11.2,19.2-16.9c0.9-1.7,2.2-4.4,3-5.9c2-3.6,4.4-15.1,4.4-20.8
		s-2.4-17.2-4.4-20.8c-0.8-1.5-2.1-4.2-3-5.9c-2.6-5.6-10.7-12.8-19.2-16.9l-7.9-3.9h-14h-14l-7.7,3.7
		c-10.2,4.9-16.9,11.2-21.3,20.2c-12.1,24.6-3.8,54.3,18.3,65.9c9.4,5,12.8,5.7,26.7,5.4C78.1,211.4,78.8,211.3,86.4,207.6z
		 M280.4,110.1c8.4-3,13.5-6.2,18.9-12c19.3-20.6,15.8-58.5-6.7-73.5c-7.7-5.1-15.6-7.7-25.6-8.3c-15.8-1-29.6,4.1-39.1,14.5
		c-21.5,23.4-15.1,63,12.4,76.6c4,1.9,9.5,3.9,12.2,4.5C259.8,113.4,273.5,112.5,280.4,110.1z"/>
</g>
</svg>
