<?xml version="1.0" encoding="utf-8"?>
<!-- Generator: Adobe Illustrator 21.0.0, SVG Export Plug-In . SVG Version: 6.00 Build 0)  -->
<svg version="1.1" id="Ebene_1" xmlns="http://www.w3.org/2000/svg" xmlns:xlink="http://www.w3.org/1999/xlink" x="0px" y="0px"
	 viewBox="0 0 328 406" style="enable-background:new 0 0 328 406;" xml:space="preserve">
<style type="text/css">
	.st0{fill:#FE5C2E;}
</style>
<g id="layer1">
	<path class="st0" d="M157.5,405.3c-16.3-3.8-41.9-16.1-60.5-29.1c-14.6-10.2-38.6-33.3-49.5-47.7c-19.1-25.1-34.4-56.8-41.5-86
		C0.5,219.8,0,211.4,0,140V75.5l31.8-15C49.2,52.3,69.1,43,76,39.8c6.9-3.2,15.2-7.2,18.5-8.8c13.9-6.8,61.5-28.9,64.9-30.1
		c2.8-1,4.5-1.1,7.9-0.2c3.3,0.9,64.9,29.5,105.2,48.8c3.9,1.9,12.6,6,19.5,9.2S309.8,67,316.2,70l11.7,5.5l0.1,62
		c0,47.1-0.4,65.5-1.5,76.5c-0.8,8-1.7,15.4-2,16.5c-0.2,1.1-1.8,7.5-3.5,14.3c-6.5,26.9-21.3,57.4-39.9,82.2
		c-9.5,12.7-28.7,32.6-39.9,41.4C210.9,392.3,173.1,408.9,157.5,405.3z M171.6,382.6c19.1-6.5,34.2-14.3,50.3-25.9
		c19-13.7,41-38,53.3-58.7c11.1-18.9,19.6-38.7,24.3-57c7.1-27.6,6.8-23.5,7.2-90.5l0.4-61l-11.8-5.4c-14.1-6.4-15.2-7-64.8-30.4
		c-21.4-10.1-41.4-19.5-44.4-20.8c-3-1.3-9.3-4.2-14-6.5l-8.5-4l-42,19.8C98.4,53.1,76.4,63.5,72.5,65.4c-3.8,1.8-17,8-29.3,13.7
		L20.9,89.5l0.4,62c0.4,68.6,0.1,64.8,7.6,92.4c8,29.1,24.8,60.3,44.4,82.6c23.9,27.2,47.8,43.5,81.2,55.6c4.4,1.6,8.5,2.9,9.1,2.9
		C164.2,385,167.8,383.9,171.6,382.6z"/>
</g>
</svg>
