<?xml version="1.0" encoding="utf-8"?>
<!-- Generator: Adobe Illustrator 21.0.0, SVG Export Plug-In . SVG Version: 6.00 Build 0)  -->
<svg version="1.1" id="Ebene_1" xmlns="http://www.w3.org/2000/svg" xmlns:xlink="http://www.w3.org/1999/xlink" x="0px" y="0px"
	 viewBox="0 0 343 328" style="enable-background:new 0 0 343 328;" xml:space="preserve">
<style type="text/css">
	.st0{fill:#FFFFFF;}
</style>
<g id="layer1">
	<path class="st0" d="M21.2,326.5c-8.9-1.4-12.7-3.2-14.4-7c-1.9-4.2-0.1-7.1,8.5-14.4C35.2,288.5,46,272.5,46,259.5
		c0-5.4,0-5.5-9.1-15.7C22,226.9,10.9,208.1,5.4,190c-4.7-15.7-6.4-38-4.3-57.5C6.6,81.4,47.9,32.7,104,11.1
		c10.9-4.2,29.7-8.8,41.5-10c12.8-1.4,39.2-1.4,52,0C270.7,9,335.2,67.7,341.9,132.5c4.6,45.1-7.7,81-38.9,113.9
		c-24.6,25.9-58.7,44.1-97,51.8c-15.8,3.1-50.6,3.3-67.7,0.3c-13.1-2.2-13.5-2.2-27.8,5.8C71.8,325.8,50.5,331.1,21.2,326.5z
		 M58.2,308c9.8-2.4,21-7.1,39.8-16.5c8.3-4.1,18.5-8.7,22.7-10.1c6.9-2.3,8.4-2.5,12.8-1.6c13.5,2.9,21.4,3.6,37.5,3.7
		c28.8,0,51.4-4.8,75.5-16c39.7-18.5,66.3-49.3,76.6-89c2.1-8,2.3-11.3,2.3-28.5s-0.2-20.5-2.3-28.5c-6.3-24.3-16.5-42-34.6-60
		c-22.4-22.4-51.4-36.8-87-43.1c-14-2.5-46-2.5-60,0c-35.4,6.3-64.8,20.9-87,43.1c-18.1,18.1-28.2,35.6-34.6,60
		c-2.1,8.1-2.4,11.1-2.3,29c0.1,18.4,0.3,20.7,2.7,29C26.8,202.4,35,217,51.6,235c9.7,10.6,10.9,13.4,10.9,26
		c0,10.4-0.1,10.6-4.3,19.1c-4.1,8.2-10.8,17.5-19.6,26.8l-4.1,4.3l8-0.6C46.9,310.3,54,309.1,58.2,308z"/>
	<path class="st0" d="M165.5,231.5l-2.5-2.4v-50.9c0-49.3,0.1-51,2-53.5c1.1-1.3,3.1-2.8,4.5-3.1c3-0.8,8,1.5,9.5,4.3
		c0.6,1.3,1,19.8,1,52.6v50.6l-2.6,2.4C173.8,234.8,168.7,234.8,165.5,231.5z"/>
	<path class="st0" d="M166,102.2c-2.9-3-3-3.2-3-13v-10l3.5-3.1c2-1.7,4.2-3.1,5-3.1s3,1.4,5,3.1l3.5,3.1V89
		c0,8.8-0.2,10.2-2.2,12.4c-1.3,1.5-3.7,2.9-5.5,3.2C169.6,105.1,168.6,104.7,166,102.2z"/>
</g>
</svg>
